<svg width="712" height="759" viewBox="0 0 712 759" fill="none" xmlns="http://www.w3.org/2000/svg">
<rect width="712" height="759" rx="73" fill="url(#paint0_linear_151_14)"/>
<path d="M250.931 381.85C253.35 379.375 255.972 377.101 258.766 375.047C250.48 366.812 245.347 355.412 245.347 342.806C245.347 317.702 265.702 297.347 290.811 297.347C308.027 297.347 323.005 306.922 330.72 321.039C336.687 316.966 343.248 313.72 350.248 311.438L350.584 310.5C350.834 309.807 350.764 309.036 350.399 308.399C350.028 307.761 349.396 307.314 348.672 307.185L331.533 304.106C330.504 303.921 329.695 303.116 329.509 302.083L326.431 284.944C326.302 284.221 325.859 283.584 325.217 283.218C324.58 282.847 323.813 282.774 323.116 283.028L306.73 288.913C305.749 289.271 304.647 288.978 303.971 288.177L292.721 274.887C292.248 274.323 291.542 274 290.809 274C290.069 274 289.372 274.323 288.894 274.887L277.645 288.177C276.969 288.978 275.867 289.271 274.88 288.922L258.5 283.033C257.806 282.783 257.036 282.851 256.394 283.218C255.757 283.588 255.318 284.221 255.184 284.945L252.106 302.084C251.916 303.117 251.111 303.922 250.083 304.107L232.944 307.181C232.216 307.314 231.588 307.758 231.217 308.395C230.847 309.037 230.778 309.803 231.028 310.5L236.918 326.886C237.271 327.872 236.978 328.97 236.177 329.65L222.887 340.895C222.323 341.368 222 342.074 222 342.806C222 343.546 222.323 344.244 222.887 344.722L236.177 355.971C236.978 356.647 237.27 357.749 236.917 358.735L231.028 375.117C230.778 375.814 230.847 376.58 231.217 377.222C231.587 377.859 232.216 378.298 232.943 378.432L250.082 381.506C250.393 381.562 250.673 381.691 250.931 381.85Z" fill="white"/>
<path d="M475.793 397.207C468.044 389.449 457.733 384.223 446.277 382.772C445.278 364.84 437.671 348.622 425.758 336.723C412.98 323.932 395.255 316.002 375.744 316.007C357.468 316.002 340.751 322.964 328.215 334.355C317.43 344.141 309.702 357.254 306.577 372.056C303.546 371.552 300.442 371.268 297.273 371.268C281.727 371.264 267.597 377.584 257.415 387.778C247.225 397.956 240.905 412.09 240.905 427.632C240.905 443.178 247.225 457.312 257.415 467.49C267.597 477.68 281.727 484 297.273 484H439.845C453.867 484 466.614 478.3 475.793 469.109C484.985 459.93 490.69 447.178 490.685 433.16C490.689 419.142 484.985 406.385 475.793 397.207ZM466.416 459.727C459.592 466.538 450.242 470.731 439.845 470.736H297.273C285.352 470.732 274.615 465.923 266.796 458.109C258.982 450.29 254.173 439.557 254.169 427.632C254.173 415.711 258.982 404.973 266.796 397.155C274.615 389.345 285.352 384.532 297.273 384.527C301.725 384.527 305.995 385.199 310.021 386.448L317.753 388.837L318.579 380.786C320.061 366.32 326.915 353.452 337.126 344.175C347.351 334.906 360.857 329.27 375.744 329.27C391.63 329.27 405.958 335.689 416.381 346.104C426.796 356.523 433.21 370.85 433.215 386.741C433.215 387.3 433.193 387.955 433.163 388.721L432.909 395.855L439.952 395.583C450.306 395.618 459.618 399.803 466.417 406.588C473.227 413.412 477.416 422.763 477.425 433.16C477.416 443.557 473.227 452.908 466.416 459.727Z" fill="white"/>
<defs>
<linearGradient id="paint0_linear_151_14" x1="356" y1="2.81841e-07" x2="365" y2="1210.5" gradientUnits="userSpaceOnUse">
<stop stop-color="#222B3A"/>
</linearGradient>
</defs>
</svg>
