<svg width="712" height="759" viewBox="0 0 712 759" fill="none" xmlns="http://www.w3.org/2000/svg">
<rect width="712" height="759" rx="73" fill="url(#paint0_linear_151_2)"/>
<path d="M250.931 381.85C253.35 379.375 255.972 377.101 258.766 375.047C250.48 366.812 245.347 355.412 245.347 342.806C245.347 317.702 265.702 297.347 290.811 297.347C308.027 297.347 323.005 306.922 330.72 321.039C336.687 316.966 343.248 313.72 350.248 311.438L350.584 310.5C350.834 309.807 350.764 309.036 350.399 308.399C350.028 307.761 349.396 307.314 348.672 307.185L331.533 304.106C330.504 303.921 329.695 303.116 329.509 302.083L326.431 284.944C326.302 284.221 325.859 283.584 325.217 283.218C324.58 282.847 323.813 282.774 323.116 283.028L306.73 288.913C305.749 289.271 304.647 288.978 303.971 288.177L292.721 274.887C292.248 274.323 291.542 274 290.809 274C290.069 274 289.372 274.323 288.894 274.887L277.645 288.177C276.969 288.978 275.867 289.271 274.88 288.922L258.5 283.033C257.806 282.783 257.036 282.851 256.394 283.218C255.757 283.588 255.318 284.221 255.184 284.945L252.106 302.084C251.916 303.117 251.111 303.922 250.083 304.107L232.944 307.181C232.216 307.314 231.588 307.758 231.217 308.395C230.847 309.037 230.778 309.803 231.028 310.5L236.918 326.886C237.271 327.872 236.978 328.97 236.177 329.65L222.887 340.895C222.323 341.368 222 342.074 222 342.806C222 343.546 222.323 344.244 222.887 344.722L236.177 355.971C236.978 356.647 237.27 357.749 236.917 358.735L231.028 375.117C230.778 375.814 230.847 376.58 231.217 377.222C231.587 377.859 232.216 378.298 232.943 378.432L250.082 381.506C250.393 381.562 250.673 381.691 250.931 381.85Z" fill="white"/>
<path d="M475.794 397.207C468.044 389.449 457.733 384.223 446.277 382.772C445.278 364.84 437.671 348.622 425.758 336.723C412.98 323.932 395.255 316.002 375.744 316.007C357.468 316.002 340.751 322.964 328.215 334.355C317.43 344.141 309.702 357.254 306.577 372.056C303.546 371.552 300.442 371.268 297.273 371.268C281.727 371.264 267.598 377.584 257.415 387.778C247.225 397.956 240.905 412.09 240.905 427.632C240.905 443.178 247.225 457.312 257.415 467.49C267.598 477.68 281.727 484 297.273 484H439.845C453.867 484 466.615 478.3 475.794 469.109C484.985 459.93 490.69 447.178 490.685 433.16C490.689 419.142 484.985 406.385 475.794 397.207ZM466.416 459.727C459.593 466.538 450.242 470.731 439.845 470.736H297.273C285.352 470.732 274.615 465.923 266.796 458.109C258.982 450.29 254.173 439.557 254.169 427.632C254.173 415.711 258.982 404.973 266.796 397.155C274.615 389.345 285.352 384.532 297.273 384.527C301.725 384.527 305.995 385.199 310.021 386.448L317.753 388.837L318.58 380.786C320.061 366.32 326.915 353.452 337.127 344.175C347.351 334.906 360.857 329.27 375.744 329.27C391.63 329.27 405.958 335.689 416.381 346.104C426.796 356.523 433.211 370.85 433.215 386.741C433.215 387.3 433.193 387.955 433.163 388.721L432.909 395.855L439.953 395.583C450.306 395.618 459.618 399.803 466.417 406.588C473.227 413.412 477.417 422.763 477.426 433.16C477.416 443.557 473.227 452.908 466.416 459.727Z" fill="white"/>
<path d="M267.378 572.745L262.339 573.295C262.196 572.786 261.947 572.307 261.591 571.859C261.244 571.411 260.776 571.05 260.186 570.775C259.595 570.5 258.873 570.363 258.017 570.363C256.867 570.363 255.9 570.612 255.116 571.111C254.342 571.61 253.961 572.256 253.971 573.05C253.961 573.732 254.21 574.287 254.719 574.715C255.238 575.142 256.093 575.494 257.284 575.768L261.285 576.624C263.504 577.102 265.154 577.86 266.233 578.899C267.322 579.937 267.872 581.296 267.882 582.976C267.872 584.452 267.439 585.755 266.584 586.885C265.739 588.005 264.563 588.88 263.056 589.511C261.55 590.143 259.819 590.458 257.865 590.458C254.994 590.458 252.683 589.857 250.932 588.656C249.181 587.445 248.138 585.76 247.802 583.602L253.192 583.083C253.436 584.141 253.956 584.941 254.75 585.48C255.544 586.02 256.577 586.289 257.849 586.289C259.163 586.289 260.216 586.02 261.01 585.48C261.815 584.941 262.217 584.274 262.217 583.48C262.217 582.808 261.957 582.253 261.438 581.815C260.929 581.378 260.135 581.042 259.056 580.808L255.055 579.968C252.805 579.499 251.141 578.71 250.062 577.601C248.983 576.481 248.448 575.066 248.458 573.356C248.448 571.91 248.84 570.658 249.634 569.599C250.438 568.531 251.553 567.706 252.978 567.126C254.414 566.535 256.068 566.24 257.941 566.24C260.69 566.24 262.853 566.825 264.431 567.996C266.019 569.167 267.001 570.75 267.378 572.745ZM280.489 582.64L280.474 575.967H281.359L289.788 566.545H296.247L285.879 578.089H284.734L280.489 582.64ZM275.45 590V558.727H280.978V590H275.45ZM290.17 590L282.535 579.326L286.261 575.433L296.782 590H290.17ZM306.629 598.795C305.876 598.795 305.178 598.734 304.537 598.612C303.906 598.5 303.402 598.368 303.025 598.215L304.308 593.909C305.112 594.143 305.83 594.255 306.461 594.245C307.092 594.235 307.647 594.036 308.125 593.65C308.614 593.273 309.026 592.642 309.362 591.756L309.836 590.489L301.33 566.545H307.194L312.599 584.259H312.844L318.265 566.545H324.143L314.753 592.84C314.315 594.082 313.735 595.146 313.012 596.032C312.289 596.927 311.403 597.609 310.355 598.078C309.316 598.556 308.074 598.795 306.629 598.795ZM349.516 572.745L344.477 573.295C344.335 572.786 344.085 572.307 343.729 571.859C343.383 571.411 342.915 571.05 342.324 570.775C341.734 570.5 341.011 570.363 340.156 570.363C339.005 570.363 338.038 570.612 337.255 571.111C336.481 571.61 336.099 572.256 336.109 573.05C336.099 573.732 336.349 574.287 336.858 574.715C337.377 575.142 338.232 575.494 339.423 575.768L343.424 576.624C345.643 577.102 347.292 577.86 348.371 578.899C349.46 579.937 350.01 581.296 350.02 582.976C350.01 584.452 349.577 585.755 348.722 586.885C347.877 588.005 346.701 588.88 345.195 589.511C343.688 590.143 341.958 590.458 340.003 590.458C337.132 590.458 334.822 589.857 333.071 588.656C331.32 587.445 330.276 585.76 329.94 583.602L335.331 583.083C335.575 584.141 336.094 584.941 336.888 585.48C337.682 586.02 338.715 586.289 339.988 586.289C341.301 586.289 342.355 586.02 343.149 585.48C343.953 584.941 344.355 584.274 344.355 583.48C344.355 582.808 344.095 582.253 343.576 581.815C343.067 581.378 342.273 581.042 341.194 580.808L337.193 579.968C334.944 579.499 333.279 578.71 332.2 577.601C331.121 576.481 330.587 575.066 330.597 573.356C330.587 571.91 330.979 570.658 331.773 569.599C332.577 568.531 333.692 567.706 335.117 567.126C336.552 566.535 338.206 566.24 340.079 566.24C342.828 566.24 344.991 566.825 346.569 567.996C348.157 569.167 349.14 570.75 349.516 572.745ZM367.972 590.458C365.62 590.458 363.589 589.969 361.879 588.992C360.179 588.005 358.871 586.61 357.955 584.808C357.038 582.996 356.58 580.864 356.58 578.41C356.58 575.998 357.038 573.88 357.955 572.058C358.881 570.225 360.174 568.8 361.833 567.782C363.493 566.754 365.442 566.24 367.682 566.24C369.127 566.24 370.491 566.474 371.774 566.942C373.067 567.401 374.207 568.113 375.194 569.08C376.192 570.047 376.976 571.279 377.546 572.776C378.116 574.262 378.401 576.033 378.401 578.089V579.784H359.176V576.059H373.102C373.092 575 372.863 574.058 372.415 573.234C371.967 572.399 371.341 571.742 370.537 571.264C369.743 570.785 368.817 570.546 367.758 570.546C366.628 570.546 365.635 570.821 364.78 571.371C363.925 571.91 363.258 572.623 362.78 573.509C362.312 574.384 362.072 575.346 362.062 576.395V579.647C362.062 581.011 362.312 582.182 362.811 583.159C363.309 584.126 364.007 584.869 364.902 585.388C365.798 585.897 366.847 586.152 368.048 586.152C368.852 586.152 369.58 586.04 370.232 585.816C370.883 585.582 371.448 585.241 371.927 584.793C372.405 584.345 372.766 583.79 373.011 583.129L378.172 583.709C377.846 585.073 377.225 586.264 376.309 587.282C375.403 588.29 374.243 589.074 372.828 589.634C371.413 590.183 369.794 590.458 367.972 590.458ZM391.615 576.257V590H386.087V566.545H391.371V570.531H391.646C392.185 569.218 393.045 568.174 394.226 567.401C395.417 566.627 396.888 566.24 398.639 566.24C400.258 566.24 401.668 566.586 402.869 567.278C404.08 567.971 405.017 568.973 405.679 570.287C406.351 571.6 406.681 573.193 406.671 575.066V590H401.144V575.921C401.144 574.353 400.736 573.127 399.922 572.241C399.118 571.355 398.003 570.913 396.578 570.913C395.611 570.913 394.751 571.126 393.997 571.554C393.254 571.971 392.669 572.577 392.241 573.371C391.824 574.165 391.615 575.127 391.615 576.257ZM433.838 572.745L428.799 573.295C428.657 572.786 428.407 572.307 428.051 571.859C427.705 571.411 427.237 571.05 426.646 570.775C426.056 570.5 425.333 570.363 424.478 570.363C423.327 570.363 422.36 570.612 421.577 571.111C420.803 571.61 420.421 572.256 420.431 573.05C420.421 573.732 420.67 574.287 421.179 574.715C421.699 575.142 422.554 575.494 423.745 575.768L427.746 576.624C429.965 577.102 431.614 577.86 432.693 578.899C433.782 579.937 434.332 581.296 434.342 582.976C434.332 584.452 433.899 585.755 433.044 586.885C432.199 588.005 431.023 588.88 429.517 589.511C428.01 590.143 426.28 590.458 424.325 590.458C421.454 590.458 419.144 589.857 417.393 588.656C415.642 587.445 414.598 585.76 414.262 583.602L419.653 583.083C419.897 584.141 420.416 584.941 421.21 585.48C422.004 586.02 423.037 586.289 424.31 586.289C425.623 586.289 426.677 586.02 427.471 585.48C428.275 584.941 428.677 584.274 428.677 583.48C428.677 582.808 428.417 582.253 427.898 581.815C427.389 581.378 426.595 581.042 425.516 580.808L421.515 579.968C419.266 579.499 417.601 578.71 416.522 577.601C415.443 576.481 414.909 575.066 414.919 573.356C414.909 571.91 415.301 570.658 416.095 569.599C416.899 568.531 418.014 567.706 419.439 567.126C420.874 566.535 422.528 566.24 424.401 566.24C427.15 566.24 429.313 566.825 430.891 567.996C432.479 569.167 433.462 570.75 433.838 572.745ZM452.294 590.458C449.942 590.458 447.911 589.969 446.201 588.992C444.501 588.005 443.193 586.61 442.277 584.808C441.36 582.996 440.902 580.864 440.902 578.41C440.902 575.998 441.36 573.88 442.277 572.058C443.203 570.225 444.496 568.8 446.155 567.782C447.815 566.754 449.764 566.24 452.004 566.24C453.449 566.24 454.813 566.474 456.096 566.942C457.389 567.401 458.529 568.113 459.516 569.08C460.514 570.047 461.298 571.279 461.868 572.776C462.438 574.262 462.723 576.033 462.723 578.089V579.784H443.498V576.059H457.424C457.414 575 457.185 574.058 456.737 573.234C456.289 572.399 455.663 571.742 454.859 571.264C454.065 570.785 453.139 570.546 452.08 570.546C450.95 570.546 449.957 570.821 449.102 571.371C448.247 571.91 447.58 572.623 447.102 573.509C446.634 574.384 446.394 575.346 446.384 576.395V579.647C446.384 581.011 446.634 582.182 447.133 583.159C447.631 584.126 448.329 584.869 449.224 585.388C450.12 585.897 451.169 586.152 452.37 586.152C453.174 586.152 453.902 586.04 454.554 585.816C455.205 585.582 455.77 585.241 456.249 584.793C456.727 584.345 457.088 583.79 457.333 583.129L462.494 583.709C462.168 585.073 461.547 586.264 460.631 587.282C459.725 588.29 458.565 589.074 457.15 589.634C455.735 590.183 454.116 590.458 452.294 590.458Z" fill="white"/>
<defs>
<linearGradient id="paint0_linear_151_2" x1="356" y1="2.81841e-07" x2="365" y2="1210.5" gradientUnits="userSpaceOnUse">
<stop stop-color="#222B3A"/>
<stop offset="1"/>
</linearGradient>
</defs>
</svg>
